Coordinates
version=1
nRows=24
nColumns=24
inDegrees=yes

Units are S.I. units (second, meters, Newtons, ...)
Angles are in degrees.

endheader
time	pelvis_tilt	pelvis_list	pelvis_rotation	pelvis_tx	pelvis_ty	pelvis_tz	hip_flexion_r	hip_adduction_r	hip_rotation_r	knee_angle_r	ankle_angle_r	subtalar_angle_r	mtp_angle_r	hip_flexion_l	hip_adduction_l	hip_rotation_l	knee_angle_l	ankle_angle_l	subtalar_angle_l	mtp_angle_l	lumbar_extension	lumbar_bending	lumbar_rotation
      0.69000000	     -5.31310063	      0.19700003	     -0.80363143	     -0.53203111	      1.04160364	      0.29426459	     21.35356177	      2.80610506	      1.01001706	    -31.36372523	     18.38207597	     -3.93540170	      2.25980654	     22.76596915	     -4.52322481	     -7.28992403	    -72.34751085	      9.75460999	     10.21853337	      4.38008566	     -5.82160868	      2.64482652	      1.87772819
      0.69416667	     -5.32912313	      0.34006818	     -0.79648242	     -0.52631230	      1.04321705	      0.29416113	     20.76160616	      2.62725117	      1.04212226	    -30.82426568	     18.40120255	     -3.87050620	      2.26085381	     23.31890901	     -4.32079863	     -7.39804927	    -71.82447833	      9.97867005	     10.20549188	      4.36876898	     -5.81595194	      2.49946000	      1.92681590
      0.69833333	     -5.31668849	      0.50473672	     -0.80428302	     -0.52060271	      1.04487143	      0.29407342	     20.14089733	      2.42846167	      1.09019018	    -30.28177950	     18.42487102	     -3.80035187	      2.26316017	     23.81742073	     -4.09831497	     -7.52528159	    -71.22098636	     10.17119117	     10.18725432	      4.35658504	     -5.84847553	      2.32104938	      1.99428801
      0.70250000	     -5.28962841	      0.65691964	     -0.82104312	     -0.51488952	      1.04650433	      0.29399207	     19.50071667	      2.24505800	      1.14065154	    -29.72726081	     18.46334910	     -3.72919528	      2.26864379	     24.28617884	     -3.89448007	     -7.65793164	    -70.56544566	     10.34019152	     10.16601773	      4.33756172	     -5.89877773	      2.15512036	      2.10464035
      0.70666667	     -5.29030356	      0.82217759	     -0.84119832	     -0.50917751	      1.04803880	      0.29390116	     18.89760529	      2.04820423	      1.19737443	    -29.18402356	     18.46252919	     -3.66677526	      2.27229921	     24.77045659	     -3.67416382	     -7.78882133	    -69.85389591	     10.52307543	     10.14708339	      4.32637685	     -5.91659205	      1.97920995	      2.17363332
      0.71083333	     -5.28578175	      0.98107199	     -0.87019574	     -0.50346250	      1.04952692	      0.29381449	     18.28933816	      1.85862062	      1.25542333	    -28.63704894	     18.46328766	     -3.60999151	      2.27566720	     25.23390312	     -3.46693931	     -7.92608289	    -69.09223370	     10.68936077	     10.11776508	      4.31705487	     -5.94033382	      1.80376128	      2.24725380
      0.71500000	     -5.25928071	      1.15013019	     -0.91099594	     -0.49777091	      1.05099467	      0.29374316	     17.66540518	      1.66147387	      1.32764244	    -28.09973280	     18.47885409	     -3.55493041	      2.28145833	     25.65679717	     -3.25102592	     -8.06853988	    -68.27240787	     10.82851448	     10.07226325	      4.30443118	     -5.99448996	      1.61739152	      2.35048790
      0.71916667	     -5.24963331	      1.30818739	     -0.95533883	     -0.49205515	      1.05237600	      0.29366162	     17.05974529	      1.47527161	      1.39793546	    -27.56206801	     18.47939144	     -3.50768265	      2.28689161	     26.08313019	     -3.04946472	     -8.20791037	    -67.40900623	     10.96248314	     10.01661424	      4.29182214	     -6.02657432	      1.44006474	      2.45113038
      0.72333333	     -5.24656412	      1.46477046	     -1.00295753	     -0.48635108	      1.05366309	      0.29358580	     16.46803874	      1.29146516	      1.46761209	    -27.03357447	     18.47858716	     -3.46096314	      2.29188227	     26.50591229	     -2.85257618	     -8.34384705	    -66.50625526	     11.08497352	      9.95389522	      4.27986135	     -6.05025560	      1.26517912	      2.54383589
      0.72750000	     -5.22200410	      1.62495556	     -1.06169698	     -0.48066580	      1.05494151	      0.29351227	     15.85928666	      1.10496152	      1.54987016	    -26.51023653	     18.47753417	     -3.42537135	      2.29761224	     26.88692968	     -2.65240156	     -8.47860098	    -65.54780028	     11.17953597	      9.86662771	      4.26475162	     -6.10605562	      1.08686170	      2.65532199
      0.73166667	     -5.20461686	      1.77821349	     -1.12236688	     -0.47497824	      1.05611899	      0.29344479	     15.26465710	      0.92590565	      1.62899553	    -25.99852567	     18.47785910	     -3.39100697	      2.30294251	     27.26429696	     -2.46463283	     -8.61020032	    -64.55588626	     11.26243876	      9.77118149	      4.24896391	     -6.15244976	      0.90912306	      2.76332639
      0.73583333	     -5.19575681	      1.92627198	     -1.18784638	     -0.46930144	      1.05719799	      0.29337004	     14.68825789	      0.75198172	      1.71100706	    -25.50207503	     18.48980284	     -3.35950511	      2.30870452	     27.63906066	     -2.28376175	     -8.73477863	    -63.52653497	     11.32489561	      9.65781945	      4.23073578	     -6.18978383	      0.74403779	      2.88016208
      0.74000000	     -5.18073689	      2.07410915	     -1.26000211	     -0.46364463	      1.05819956	      0.29330554	     14.11618393	      0.57954501	      1.79607647	    -25.02227641	     18.50076142	     -3.33138995	      2.31416183	     27.99445019	     -2.10600863	     -8.85379470	    -62.46086113	     11.36895729	      9.53015686	      4.20985472	     -6.23934788	      0.57745843	      3.00335600
      0.74416667	     -5.17101352	      2.20730719	     -1.33254978	     -0.45798463	      1.05912151	      0.29323569	     13.55325648	      0.42197198	      1.87933569	    -24.54830170	     18.51442506	     -3.30901737	      2.31938505	     28.34284788	     -1.94495492	     -8.95994083	    -61.36139270	     11.39145815	      9.39076989	      4.18577519	     -6.28222041	      0.42624300	      3.13269942
      0.74833333	     -5.17268506	      2.33922892	     -1.40555083	     -0.45233880	      1.05991814	      0.29316127	     13.01512720	      0.26488356	      1.95852352	    -24.09695760	     18.53655591	     -3.28730841	      2.32372971	     28.69420122	     -1.78674823	     -9.05658828	    -60.23470587	     11.39701183	      9.24470822	      4.16076999	     -6.31456453	      0.27632259	      3.25319531
      0.75250000	     -5.15869456	      2.45788703	     -1.48205572	     -0.44670877	      1.06066190	      0.29308824	     12.46774251	      0.12189751	      2.04008211	    -23.65894628	     18.56812443	     -3.27180425	      2.32799179	     29.01622278	     -1.64420916	     -9.14118152	    -59.07659687	     11.37777633	      9.07698210	      4.13054125	     -6.36676662	      0.14162323	      3.39180566
      0.75666667	     -5.18650743	      2.56706406	     -1.55560962	     -0.44107970	      1.06122428	      0.29301598	     11.97649150	     -0.00994436	      2.11349314	    -23.24213708	     18.60142817	     -3.25451988	      2.33062070	     29.37600804	     -1.51468947	     -9.21056867	    -57.89996433	     11.34636555	      8.91977863	      4.10129866	     -6.37325026	      0.01863808	      3.51373428
      0.76083333	     -5.19016099	      2.67111173	     -1.63113738	     -0.43546349	      1.06175920	      0.29293610	     11.46734861	     -0.13874699	      2.18469968	    -22.83944323	     18.64381098	     -3.24057318	      2.33210555	     29.69415397	     -1.38911318	     -9.26790673	    -56.68745610	     11.28890273	      8.74210204	      4.06912992	     -6.41069496	     -0.09919262	      3.64150201
      0.76500000	     -5.20154443	      2.75743175	     -1.70364319	     -0.42985914	      1.06217581	      0.29285213	     10.97419027	     -0.24832090	      2.25046536	    -22.45165807	     18.69498307	     -3.22587635	      2.33192987	     30.01363997	     -1.28330884	     -9.30610317	    -55.45953908	     11.21821266	      8.56634085	      4.03614671	     -6.44145246	     -0.19619329	      3.76899180
      0.76916667	     -5.24071834	      2.83112378	     -1.77388359	     -0.42426926	      1.06242758	      0.29276413	     10.52666360	     -0.34399482	      2.31003048	    -22.09678005	     18.76062581	     -3.21183971	      2.33003184	     30.35681914	     -1.19332048	     -9.32983240	    -54.21779660	     11.13625612	      8.39491725	      4.00293288	     -6.44260593	     -0.27805423	      3.89249418
      0.77333333	     -5.26037157	      2.89624305	     -1.84326564	     -0.41867617	      1.06264967	      0.29267107	     10.06162218	     -0.43265021	      2.36167645	    -21.74880915	     18.84612494	     -3.19124515	      2.32452870	     30.66277327	     -1.11026059	     -9.33758187	    -52.94575787	     11.03851957	      8.19251017	      3.96027797	     -6.46612542	     -0.34861610	      4.04112606
      0.77750000	     -5.30261533	      2.95037215	     -1.90657958	     -0.41309804	      1.06272952	      0.29257861	      9.63480134	     -0.50832137	      2.40720883	    -21.42944268	     18.91560739	     -3.17455201	      2.31734974	     30.98518732	     -1.04055682	     -9.32652857	    -51.65621029	     10.92565046	      8.04649855	      3.92724851	     -6.47162989	     -0.40923998	      4.14174447
      0.78166667	     -5.35237099	      2.99811457	     -1.96668452	     -0.40753253	      1.06269966	      0.29246007	      9.22835789	     -0.57990918	      2.44052710	    -21.13584871	     19.01323294	     -3.15068595	      2.30819613	     31.30541263	     -0.97344506	     -9.29710162	    -50.34835590	     10.80215040	      7.87600685	      3.89512157	     -6.46689545	     -0.45997099	      4.24817261
      0.78583333	     -5.40891228	      3.02247857	     -2.02105062	     -0.40196851	      1.06256405	      0.29234398	      8.83593776	     -0.62540982	      2.46711280	    -20.85906393	     19.11903632	     -3.12446098	      2.29624562	     31.62482239	     -0.93219085	     -9.24667095	    -49.03100157	     10.68004266	      7.72045171	      3.86545931	     -6.45858511	     -0.48194242	      4.35258368
